<?xml version="1.0" standalone="no"?>
<!DOCTYPE svg PUBLIC "-//W3C//DTD SVG 20010904//EN"
 "http://www.w3.org/TR/2001/REC-SVG-20010904/DTD/svg10.dtd">
<svg version="1.0" xmlns="http://www.w3.org/2000/svg"
 width="300.000000pt" height="39.000000pt" viewBox="0 0 300.000000 39.000000"
 preserveAspectRatio="xMidYMid meet">
<metadata>
Created by potrace 1.10, written by Peter Selinger 2001-2011
</metadata>
<g transform="translate(0.000000,39.000000) scale(0.100000,-0.100000)"
fill="#000000" stroke="none">
<path d="M59 338 c-1 -2 -3 -54 -5 -115 -4 -108 -4 -113 16 -113 18 0 20 6 20
75 0 68 2 75 20 75 13 0 20 7 20 20 0 13 -7 20 -20 20 -13 0 -20 7 -20 20 0
11 -7 20 -15 20 -8 0 -15 -1 -16 -2z"/>
<path d="M200 320 c0 -13 -7 -20 -20 -20 -22 0 -23 -1 -14 -24 3 -9 12 -16 20
-16 11 0 14 -18 14 -75 0 -68 2 -75 20 -75 19 0 20 7 20 115 0 108 -1 115 -20
115 -13 0 -20 -7 -20 -20z"/>
<path d="M350 321 c0 -15 6 -21 21 -21 14 0 19 5 17 17 -5 26 -38 29 -38 4z"/>
<path d="M1300 225 c0 -108 1 -115 20 -115 17 0 20 7 20 40 0 34 3 40 21 40
16 0 20 -5 16 -20 -4 -15 0 -20 14 -20 12 0 19 -7 19 -20 0 -13 7 -20 20 -20
13 0 20 7 20 20 0 13 -7 20 -20 20 -13 0 -20 7 -20 20 0 11 -7 20 -15 20 -8 0
-15 7 -15 15 0 8 7 15 15 15 8 0 15 9 15 20 0 13 7 20 20 20 13 0 20 7 20 20
0 13 -7 20 -20 20 -13 0 -20 -7 -20 -20 0 -13 -7 -20 -19 -20 -14 0 -18 -5
-14 -20 4 -15 0 -20 -16 -20 -19 0 -21 6 -21 60 0 53 -2 60 -20 60 -19 0 -20
-7 -20 -115z"/>
<path d="M1700 318 c0 -14 8 -18 35 -18 l35 0 0 -95 c0 -88 1 -95 20 -95 19 0
20 7 20 95 l0 95 35 0 c27 0 35 4 35 18 0 15 -11 17 -90 17 -79 0 -90 -2 -90
-17z"/>
<path d="M2360 311 c0 -29 -2 -31 -40 -31 -33 0 -40 -3 -40 -20 0 -11 -7 -20
-15 -20 -12 0 -15 -14 -15 -65 l0 -65 73 0 72 0 -1 112 c-2 95 -4 114 -18 116
-12 3 -16 -4 -16 -27z m0 -116 l0 -45 -40 0 -40 0 0 45 0 45 40 0 40 0 0 -45z"/>
<path d="M350 195 c0 -78 2 -85 20 -85 18 0 20 7 20 85 0 78 -2 85 -20 85 -18
0 -20 -7 -20 -85z"/>
<path d="M495 195 c0 -74 2 -85 18 -85 14 0 17 10 17 65 l0 65 44 0 c35 0 45
4 49 20 5 19 0 20 -61 20 l-67 0 0 -85z"/>
<path d="M770 230 c0 -27 2 -50 4 -50 25 0 36 16 36 56 0 37 -3 44 -20 44 -17
0 -20 -7 -20 -50z"/>
<path d="M880 231 l0 -50 -35 6 c-31 5 -35 3 -35 -16 0 -17 6 -21 35 -21 28 0
35 -4 35 -20 0 -18 -7 -20 -55 -20 -48 0 -55 -2 -55 -20 0 -18 7 -20 55 -20
48 0 55 2 55 20 0 13 7 20 20 20 18 0 20 7 20 85 0 78 -2 85 -20 85 -17 0 -20
-7 -20 -49z"/>
<path d="M1020 260 c0 -18 7 -20 65 -20 58 0 65 2 65 20 0 18 -7 20 -65 20
-58 0 -65 -2 -65 -20z"/>
<path d="M2030 260 c0 -13 -7 -20 -20 -20 -17 0 -20 -7 -20 -45 0 -38 3 -45
20 -45 13 0 20 -7 20 -20 0 -16 7 -20 35 -20 28 0 35 4 35 20 0 13 7 20 20 20
17 0 20 7 20 45 0 38 -3 45 -20 45 -13 0 -20 7 -20 20 0 16 -7 20 -35 20 -28
0 -35 -4 -35 -20z m70 -65 c0 -45 0 -45 -35 -45 -35 0 -35 0 -35 45 0 45 0 45
35 45 35 0 35 0 35 -45z"/>
<path d="M2500 260 c0 -18 7 -20 65 -20 58 0 65 2 65 20 0 18 -7 20 -65 20
-58 0 -65 -2 -65 -20z"/>
<path d="M2780 230 c0 -27 2 -50 4 -50 25 0 36 16 36 56 0 37 -3 44 -20 44
-17 0 -20 -7 -20 -50z"/>
<path d="M2890 231 l0 -50 -35 6 c-31 5 -35 3 -35 -16 0 -17 6 -21 35 -21 28
0 35 -4 35 -20 0 -18 -7 -20 -55 -20 -48 0 -55 -2 -55 -20 0 -18 7 -20 55 -20
48 0 55 2 55 20 0 13 7 20 20 20 18 0 20 7 20 85 0 78 -2 85 -20 85 -17 0 -20
-7 -20 -49z"/>
<path d="M130 240 c0 -13 7 -20 20 -20 13 0 20 7 20 20 0 13 -7 20 -20 20 -13
0 -20 -7 -20 -20z"/>
<path d="M620 175 c0 -58 2 -65 20 -65 18 0 20 7 20 65 0 58 -2 65 -20 65 -18
0 -20 -7 -20 -65z"/>
<path d="M1150 230 c0 -5 -22 -10 -50 -10 -38 0 -50 -4 -50 -15 0 -8 -7 -15
-15 -15 -8 0 -15 -9 -15 -20 0 -11 7 -20 15 -20 8 0 15 -9 15 -20 0 -18 7 -20
64 -20 l64 0 4 65 c3 57 1 65 -14 65 -10 0 -18 -4 -18 -10z m0 -60 c0 -17 -7
-20 -45 -20 -38 0 -45 3 -45 20 0 17 7 20 45 20 38 0 45 -3 45 -20z"/>
<path d="M2630 230 c0 -5 -20 -10 -45 -10 -33 0 -45 -4 -45 -15 0 -8 -9 -15
-20 -15 -13 0 -20 -7 -20 -20 0 -13 7 -20 20 -20 13 0 20 -7 20 -20 0 -18 7
-20 65 -20 l65 0 0 65 c0 58 -2 65 -20 65 -11 0 -20 -4 -20 -10z m0 -60 c0
-17 -7 -20 -45 -20 -38 0 -45 3 -45 20 0 17 7 20 45 20 38 0 45 -3 45 -20z"/>
<path d="M1550 130 c0 -13 7 -20 20 -20 13 0 20 7 20 20 0 13 -7 20 -20 20
-13 0 -20 -7 -20 -20z"/>
</g>
</svg>
